<svg width="25" height="25" viewBox="0 0 25 25" fill="none" xmlns="http://www.w3.org/2000/svg">
<path d="M21.4707 12.5C21.4707 14.28 20.9429 16.0201 19.9539 17.5001C18.965 18.9802 17.5594 20.1337 15.9149 20.8149C14.2703 21.4961 12.4607 21.6743 10.7149 21.3271C8.96907 20.9798 7.36542 20.1226 6.10675 18.864C4.84807 17.6053 3.99091 16.0016 3.64364 14.2558C3.29637 12.51 3.4746 10.7004 4.15579 9.05585C4.83698 7.41131 5.99053 6.00571 7.47058 5.01677C8.95062 4.02784 10.6907 3.5 12.4707 3.5C14.9907 3.5 17.4007 4.5 19.2107 6.24L21.4707 8.5" stroke="black" stroke-linecap="round" stroke-linejoin="round"/>
<path d="M21.4707 3.5V8.5H16.4707" stroke="black" stroke-linecap="round" stroke-linejoin="round"/>
</svg>
