<svg width="24" height="24" viewBox="0 0 24 24" fill="none" xmlns="http://www.w3.org/2000/svg">
<path d="M17.2799 9.04977C17.5189 8.23007 17.5639 7.36597 17.4111 6.5259C17.2584 5.68582 16.9122 4.89284 16.3999 4.20977C15.8875 3.52669 15.2232 2.97227 14.4595 2.59042C13.6958 2.20856 12.8537 2.00977 11.9999 2.00977C11.146 2.00977 10.3039 2.20856 9.54018 2.59042C8.77647 2.97227 8.11216 3.52669 7.59985 4.20977C7.08754 4.89284 6.74131 5.68582 6.58857 6.5259C6.43583 7.36597 6.48077 8.23007 6.71985 9.04977C5.81784 9.17943 4.96218 9.53119 4.22977 10.0734C3.49737 10.6157 2.91118 11.3314 2.52388 12.1563C2.13658 12.9812 1.96032 13.8894 2.01093 14.7993C2.06154 15.7092 2.33745 16.5922 2.81384 17.369C3.29023 18.1459 3.95219 18.7922 4.74021 19.2499C5.52824 19.7075 6.41763 19.9622 7.32846 19.9911C8.23929 20.0199 9.14301 19.8219 9.9584 19.415C10.7738 19.0081 11.4753 18.4049 11.9999 17.6598C12.5231 18.407 13.224 19.0123 14.0394 19.4212C14.8547 19.8302 15.7591 20.0299 16.6708 20.0024C17.5826 19.9749 18.4732 19.7211 19.2625 19.2638C20.0518 18.8064 20.7149 18.16 21.1922 17.3826C21.6694 16.6052 21.9459 15.7213 21.9966 14.8106C22.0473 13.8998 21.8706 12.9907 21.4826 12.1651C21.0945 11.3396 20.5072 10.6236 19.7736 10.0815C19.0399 9.53937 18.183 9.18827 17.2799 9.05977V9.04977Z" stroke="black" stroke-linecap="round" stroke-linejoin="round"/>
<path d="M12 17.6602V22.0002" stroke="black" stroke-linecap="round" stroke-linejoin="round"/>
</svg>
