<svg width="24" height="24" viewBox="0 0 24 24" fill="none" xmlns="http://www.w3.org/2000/svg">
<path d="M12 18V22" stroke="black" stroke-linecap="round" stroke-linejoin="round"/>
<path d="M2 14.4992C2.00022 15.6119 2.33794 16.6984 2.96856 17.6151C3.59917 18.5319 4.49303 19.2358 5.53208 19.6339C6.57112 20.0321 7.7065 20.1057 8.78826 19.8451C9.87002 19.5844 10.8473 19.0018 11.591 18.1742C11.7022 18.0708 11.8484 18.0135 12.0002 18.0137C12.152 18.0139 12.2981 18.0716 12.409 18.1752C13.1527 19.0028 14.13 19.5854 15.2117 19.8461C16.2935 20.1067 17.4289 20.0331 18.4679 19.6349C19.507 19.2368 20.4008 18.5329 21.0314 17.6161C21.6621 16.6994 21.9998 15.6129 22 14.5002C22 12.2102 20.5 10.5002 19 9.00017L13.508 3.68817C13.3217 3.4741 13.0921 3.30211 12.8342 3.18364C12.5764 3.06516 12.2963 3.00291 12.0125 3.00102C11.7288 2.99913 11.4479 3.05764 11.1885 3.17267C10.9291 3.28769 10.6971 3.4566 10.508 3.66817L5 8.99917C3.5 10.4992 2 12.1992 2 14.4992Z" stroke="black" stroke-linecap="round" stroke-linejoin="round"/>
</svg>
