<svg width="24" height="24" viewBox="0 0 24 24" fill="none" xmlns="http://www.w3.org/2000/svg">
<path d="M12.4092 13.017C12.865 11.9604 13.6714 11.0934 14.6921 10.5622C15.7129 10.031 16.8857 9.86815 18.0126 10.1011C19.1395 10.3341 20.1515 10.9487 20.8779 11.8411C21.6044 12.7336 22.0008 13.8493 22.0002 15C22.0002 18.866 18.0002 22 13.0002 22C8.92321 22 4.84721 21.18 2.62921 19.538C2.20321 19.222 1.99821 18.706 2.00921 18.176C2.11821 12.723 2.62721 2 10.0002 2C10.7959 2 11.5589 2.31607 12.1215 2.87868C12.6841 3.44129 13.0002 4.20435 13.0002 5C13.0002 5.53043 12.7895 6.03914 12.4144 6.41421C12.0393 6.78929 11.5306 7 11.0002 7C9.89521 7 9.36021 6.556 9.00021 6" stroke="black" stroke-linecap="round" stroke-linejoin="round"/>
<path d="M15 13.9998C14.3965 13.5469 13.6983 13.2365 12.9578 13.0918C12.2172 12.9471 11.4536 12.9719 10.724 13.1643C9.99437 13.3567 9.31778 13.7118 8.7449 14.2028C8.17202 14.6939 7.71771 15.3082 7.41602 15.9998" stroke="black" stroke-linecap="round" stroke-linejoin="round"/>
<path d="M9.964 6.8252C8.019 7.9772 9.5 13.0002 8 15.0002" stroke="black" stroke-linecap="round" stroke-linejoin="round"/>
</svg>
