<svg width="36" height="32" viewBox="0 0 36 32" fill="none" xmlns="http://www.w3.org/2000/svg">
<path d="M6.5 12.5C6.5 5.87258 11.8726 0.5 18.5 0.5C25.1274 0.5 30.5 5.87258 30.5 12.5V31.5H6.5V12.5Z" stroke="black"/>
<line y1="31.5" x2="36" y2="31.5" stroke="black"/>
<path d="M13.3008 16.6172V17.4453C13.7279 17.0599 14.0469 16.8125 14.2578 16.7031C14.4714 16.5911 14.668 16.5352 14.8477 16.5352C15.043 16.5352 15.224 16.6016 15.3906 16.7344C15.5599 16.8646 15.6445 16.9635 15.6445 17.0312C15.6445 17.0807 15.6276 17.1224 15.5938 17.1562C15.5625 17.1875 15.5221 17.2031 15.4727 17.2031C15.4466 17.2031 15.4245 17.1992 15.4062 17.1914C15.388 17.181 15.3542 17.151 15.3047 17.1016C15.2135 17.0104 15.1341 16.9479 15.0664 16.9141C14.9987 16.8802 14.9323 16.8633 14.8672 16.8633C14.724 16.8633 14.5508 16.9206 14.3477 17.0352C14.1471 17.1497 13.7982 17.4297 13.3008 17.875V19.6719H14.7539C14.8346 19.6719 14.8919 19.6875 14.9258 19.7188C14.9596 19.7474 14.9766 19.7865 14.9766 19.8359C14.9766 19.8828 14.9596 19.9219 14.9258 19.9531C14.8919 19.9844 14.8346 20 14.7539 20H12.1797C12.1016 20 12.0456 19.9857 12.0117 19.957C11.9779 19.9258 11.9609 19.8867 11.9609 19.8398C11.9609 19.7956 11.9766 19.7591 12.0078 19.7305C12.0417 19.6992 12.099 19.6836 12.1797 19.6836H12.9727V16.9492H12.3672C12.2891 16.9492 12.2331 16.9336 12.1992 16.9023C12.1654 16.8711 12.1484 16.8307 12.1484 16.7812C12.1484 16.7344 12.1641 16.6953 12.1953 16.6641C12.2292 16.6328 12.2865 16.6172 12.3672 16.6172H13.3008ZM18.6602 14.9336V15.7812H18.1758V14.9336H18.6602ZM18.6719 16.6172V19.6719H19.9609C20.0417 19.6719 20.099 19.6875 20.1328 19.7188C20.1667 19.7474 20.1836 19.7865 20.1836 19.8359C20.1836 19.8828 20.1667 19.9219 20.1328 19.9531C20.099 19.9844 20.0417 20 19.9609 20H17.0547C16.9766 20 16.9206 19.9844 16.8867 19.9531C16.8529 19.9219 16.8359 19.8828 16.8359 19.8359C16.8359 19.7865 16.8529 19.7474 16.8867 19.7188C16.9206 19.6875 16.9766 19.6719 17.0547 19.6719H18.3438V16.9492H17.3867C17.3086 16.9492 17.2513 16.9336 17.2148 16.9023C17.181 16.8711 17.1641 16.832 17.1641 16.7852C17.1641 16.7357 17.181 16.6953 17.2148 16.6641C17.2487 16.6328 17.306 16.6172 17.3867 16.6172H18.6719ZM22.0664 16.6172V17.2148C22.2617 16.9779 22.4714 16.7995 22.6953 16.6797C22.9193 16.5599 23.1836 16.5 23.4883 16.5C23.8112 16.5 24.1094 16.5755 24.3828 16.7266C24.6562 16.8776 24.8672 17.0885 25.0156 17.3594C25.1667 17.6276 25.2422 17.9102 25.2422 18.207C25.2422 18.6784 25.0729 19.082 24.7344 19.418C24.3984 19.7513 23.9844 19.918 23.4922 19.918C22.9062 19.918 22.431 19.6797 22.0664 19.2031V21.1797H22.8633C22.9414 21.1797 22.9974 21.194 23.0312 21.2227C23.0651 21.2539 23.082 21.2943 23.082 21.3438C23.082 21.3906 23.0651 21.4297 23.0312 21.4609C22.9974 21.4922 22.9414 21.5078 22.8633 21.5078H21.2969C21.2188 21.5078 21.1628 21.4922 21.1289 21.4609C21.0951 21.4323 21.0781 21.3932 21.0781 21.3438C21.0781 21.2943 21.0951 21.2539 21.1289 21.2227C21.1628 21.194 21.2188 21.1797 21.2969 21.1797H21.7383V16.9492H21.2969C21.2188 16.9492 21.1628 16.9336 21.1289 16.9023C21.0951 16.8711 21.0781 16.8307 21.0781 16.7812C21.0781 16.7344 21.0951 16.6953 21.1289 16.6641C21.1628 16.6328 21.2188 16.6172 21.2969 16.6172H22.0664ZM24.9102 18.207C24.9102 17.8294 24.7721 17.5065 24.4961 17.2383C24.2227 16.9674 23.888 16.832 23.4922 16.832C23.0938 16.832 22.7565 16.9674 22.4805 17.2383C22.2044 17.5091 22.0664 17.832 22.0664 18.207C22.0664 18.5846 22.2044 18.9089 22.4805 19.1797C22.7565 19.4505 23.0938 19.5859 23.4922 19.5859C23.8854 19.5859 24.2201 19.4518 24.4961 19.1836C24.7721 18.9128 24.9102 18.5872 24.9102 18.207Z" fill="black"/>
</svg>
