<svg width="20" height="21" viewBox="0 0 20 21" fill="none" xmlns="http://www.w3.org/2000/svg">
<path d="M9.99984 5.49967C10.4601 5.49967 10.8332 5.12658 10.8332 4.66634C10.8332 4.2061 10.4601 3.83301 9.99984 3.83301C9.5396 3.83301 9.1665 4.2061 9.1665 4.66634C9.1665 5.12658 9.5396 5.49967 9.99984 5.49967Z" stroke="#CCCCCC" stroke-linecap="round" stroke-linejoin="round"/>
<path d="M15.8333 5.49967C16.2936 5.49967 16.6667 5.12658 16.6667 4.66634C16.6667 4.2061 16.2936 3.83301 15.8333 3.83301C15.3731 3.83301 15 4.2061 15 4.66634C15 5.12658 15.3731 5.49967 15.8333 5.49967Z" stroke="#CCCCCC" stroke-linecap="round" stroke-linejoin="round"/>
<path d="M4.16683 5.49967C4.62707 5.49967 5.00016 5.12658 5.00016 4.66634C5.00016 4.2061 4.62707 3.83301 4.16683 3.83301C3.70659 3.83301 3.3335 4.2061 3.3335 4.66634C3.3335 5.12658 3.70659 5.49967 4.16683 5.49967Z" stroke="#CCCCCC" stroke-linecap="round" stroke-linejoin="round"/>
<path d="M9.99984 11.3337C10.4601 11.3337 10.8332 10.9606 10.8332 10.5003C10.8332 10.0401 10.4601 9.66699 9.99984 9.66699C9.5396 9.66699 9.1665 10.0401 9.1665 10.5003C9.1665 10.9606 9.5396 11.3337 9.99984 11.3337Z" stroke="#CCCCCC" stroke-linecap="round" stroke-linejoin="round"/>
<path d="M15.8333 11.3337C16.2936 11.3337 16.6667 10.9606 16.6667 10.5003C16.6667 10.0401 16.2936 9.66699 15.8333 9.66699C15.3731 9.66699 15 10.0401 15 10.5003C15 10.9606 15.3731 11.3337 15.8333 11.3337Z" stroke="#CCCCCC" stroke-linecap="round" stroke-linejoin="round"/>
<path d="M4.16683 11.3337C4.62707 11.3337 5.00016 10.9606 5.00016 10.5003C5.00016 10.0401 4.62707 9.66699 4.16683 9.66699C3.70659 9.66699 3.3335 10.0401 3.3335 10.5003C3.3335 10.9606 3.70659 11.3337 4.16683 11.3337Z" stroke="#CCCCCC" stroke-linecap="round" stroke-linejoin="round"/>
<path d="M9.99984 17.1667C10.4601 17.1667 10.8332 16.7936 10.8332 16.3333C10.8332 15.8731 10.4601 15.5 9.99984 15.5C9.5396 15.5 9.1665 15.8731 9.1665 16.3333C9.1665 16.7936 9.5396 17.1667 9.99984 17.1667Z" stroke="#CCCCCC" stroke-linecap="round" stroke-linejoin="round"/>
<path d="M15.8333 17.1667C16.2936 17.1667 16.6667 16.7936 16.6667 16.3333C16.6667 15.8731 16.2936 15.5 15.8333 15.5C15.3731 15.5 15 15.8731 15 16.3333C15 16.7936 15.3731 17.1667 15.8333 17.1667Z" stroke="#CCCCCC" stroke-linecap="round" stroke-linejoin="round"/>
<path d="M4.16683 17.1667C4.62707 17.1667 5.00016 16.7936 5.00016 16.3333C5.00016 15.8731 4.62707 15.5 4.16683 15.5C3.70659 15.5 3.3335 15.8731 3.3335 16.3333C3.3335 16.7936 3.70659 17.1667 4.16683 17.1667Z" stroke="#CCCCCC" stroke-linecap="round" stroke-linejoin="round"/>
</svg>
