<svg width="18" height="19" viewBox="0 0 18 19" fill="none" xmlns="http://www.w3.org/2000/svg">
<path d="M15.8805 5.60929C16.277 5.21285 16.4998 4.67514 16.4999 4.11443C16.4999 3.55372 16.2773 3.01594 15.8808 2.61941C15.4844 2.22288 14.9467 2.00007 14.386 2C13.8253 1.99993 13.2875 2.2226 12.8909 2.61904L2.88145 12.6308C2.70732 12.8044 2.57854 13.0182 2.50645 13.2533L1.5157 16.5173C1.49632 16.5821 1.49485 16.651 1.51146 16.7167C1.52807 16.7823 1.56214 16.8422 1.61005 16.89C1.65796 16.9379 1.71792 16.9718 1.78357 16.9883C1.84922 17.0048 1.91812 17.0033 1.98295 16.9838L5.2477 15.9938C5.48258 15.9224 5.69633 15.7944 5.8702 15.621L15.8805 5.60929Z" stroke="#CCCCCC" stroke-linecap="round" stroke-linejoin="round"/>
</svg>
