<svg width="21" height="21" viewBox="0 0 21 21" fill="none" xmlns="http://www.w3.org/2000/svg">
<path d="M8.00016 12.1663L3.8335 7.99967L8.00016 3.83301" stroke="#202020" stroke-linecap="round" stroke-linejoin="round"/>
<path d="M3.8335 8H12.5835C13.1854 8 13.7814 8.11855 14.3375 8.34889C14.8935 8.57922 15.3988 8.91683 15.8244 9.34243C16.25 9.76803 16.5876 10.2733 16.8179 10.8294C17.0483 11.3854 17.1668 11.9814 17.1668 12.5833C17.1668 13.1852 17.0483 13.7812 16.8179 14.3373C16.5876 14.8934 16.25 15.3986 15.8244 15.8242C15.3988 16.2498 14.8935 16.5874 14.3375 16.8178C13.7814 17.0481 13.1854 17.1667 12.5835 17.1667H9.66683" stroke="#202020" stroke-linecap="round" stroke-linejoin="round"/>
</svg>
