<svg width="25" height="25" viewBox="0 0 25 25" fill="none" xmlns="http://www.w3.org/2000/svg">
<path d="M13.3007 2.68036C13.0401 2.56151 12.7571 2.5 12.4707 2.5C12.1843 2.5 11.9012 2.56151 11.6407 2.68036L3.07067 6.58036C2.89322 6.6586 2.74235 6.78676 2.63643 6.94921C2.53051 7.11167 2.47412 7.30142 2.47412 7.49536C2.47412 7.68929 2.53051 7.87904 2.63643 8.0415C2.74235 8.20396 2.89322 8.33211 3.07067 8.41036L11.6507 12.3204C11.9112 12.4392 12.1943 12.5007 12.4807 12.5007C12.7671 12.5007 13.0501 12.4392 13.3107 12.3204L21.8907 8.42036C22.0681 8.34211 22.219 8.21396 22.3249 8.0515C22.4308 7.88904 22.4872 7.69929 22.4872 7.50536C22.4872 7.31142 22.4308 7.12167 22.3249 6.95921C22.219 6.79676 22.0681 6.6686 21.8907 6.59036L13.3007 2.68036Z" stroke="black" stroke-linecap="round" stroke-linejoin="round"/>
<path d="M2.47071 12.5C2.47023 12.6913 2.52462 12.8787 2.62742 13.0399C2.73022 13.2012 2.87713 13.3297 3.05071 13.41L11.6507 17.32C11.9099 17.4374 12.1912 17.4981 12.4757 17.4981C12.7602 17.4981 13.0415 17.4374 13.3007 17.32L21.8807 13.42C22.0577 13.3404 22.2077 13.2111 22.3125 13.0477C22.4173 12.8844 22.4722 12.6941 22.4707 12.5" stroke="black" stroke-linecap="round" stroke-linejoin="round"/>
<path d="M2.47071 17.5C2.47023 17.6913 2.52462 17.8787 2.62742 18.0399C2.73022 18.2012 2.87713 18.3297 3.05071 18.41L11.6507 22.32C11.9099 22.4374 12.1912 22.4981 12.4757 22.4981C12.7602 22.4981 13.0415 22.4374 13.3007 22.32L21.8807 18.42C22.0577 18.3404 22.2077 18.2111 22.3125 18.0477C22.4173 17.8844 22.4722 17.6941 22.4707 17.5" stroke="black" stroke-linecap="round" stroke-linejoin="round"/>
</svg>
